<svg xmlns="http://www.w3.org/2000/svg" viewBox="354 138 2413 1669"><g><g transform="translate(0,2064) scale(0.1,-0.1)" fill="#0F0F0F"><path d="M3990 19154 c-8 -3 -29 -12 -47 -20 -17 -8 -38 -14 -47 -14 -17 0
-98 -51 -140 -89 -42 -38 -70 -88 -94 -165 l-22 -69 0 -5611 0 -5611 24 -96
c37 -149 87 -234 170 -287 64 -42 121 -55 256 -59 229 -8 312 39 402 227 14
30 37 87 50 125 l23 70 0 2470 c0 2358 1 2475 18 2570 11 55 27 127 38 161 10
33 19 67 19 75 0 8 7 28 16 44 9 17 19 39 23 50 3 11 29 58 56 105 37 63 81
116 170 205 116 116 225 205 250 205 6 0 20 9 30 20 10 11 22 20 27 20 4 0 34
15 66 32 59 34 159 78 177 78 6 0 31 11 57 25 26 14 56 25 68 25 11 0 31 7 43
15 13 8 52 19 89 24 36 5 75 14 85 19 10 6 48 13 83 17 36 4 111 13 166 21
207 29 554 14 784 -33 41 -8 98 -19 127 -23 29 -5 62 -15 75 -24 12 -9 33 -16
45 -16 12 0 42 -9 65 -19 24 -10 70 -29 103 -41 33 -11 78 -30 100 -40 22 -10
51 -23 65 -29 14 -6 43 -22 65 -36 22 -13 54 -31 70 -39 17 -9 48 -27 70 -40
22 -14 69 -40 105 -59 36 -20 72 -46 80 -59 13 -20 15 -125 16 -773 1 -412 -3
-1204 -9 -1760 -10 -1012 -8 -1128 24 -1585 11 -166 41 -354 76 -485 13 -49
33 -126 44 -170 11 -44 34 -116 50 -160 17 -44 43 -118 59 -164 47 -135 220
-485 307 -621 138 -215 269 -390 396 -528 161 -175 434 -432 494 -465 8 -5 52
-37 98 -71 119 -88 220 -157 273 -187 128 -71 354 -187 412 -211 244 -99 344
-135 555 -197 60 -18 256 -57 330 -66 28 -4 77 -13 110 -20 136 -32 574 -45
861 -25 243 17 553 80 834 172 154 50 173 57 325 118 72 29 258 116 295 139 8
5 63 37 123 70 171 97 272 167 456 312 282 222 469 416 693 719 141 191 219
322 345 571 37 75 140 325 155 379 6 19 14 40 18 45 4 6 15 37 24 70 10 33 24
74 32 92 8 17 14 43 14 57 0 15 6 52 14 84 103 406 121 626 111 1292 -8 502 3
639 75 900 51 185 197 411 358 553 81 72 236 174 285 188 16 4 34 12 40 18 19
15 125 51 232 77 180 45 506 30 646 -29 19 -8 68 -28 109 -43 41 -15 106 -46
143 -68 38 -23 87 -52 110 -66 65 -38 208 -182 277 -278 112 -155 194 -357
221 -542 6 -42 7 -30 4 54 -1 60 -8 111 -13 115 -6 3 -13 24 -17 46 -7 40 -37
116 -56 145 -5 8 -16 29 -24 46 -8 17 -29 51 -47 75 -18 24 -38 55 -44 69 -13
28 -191 230 -203 230 -4 0 -19 9 -32 21 -13 11 -44 33 -69 47 -25 14 -65 40
-90 57 -57 40 -123 71 -177 85 -23 6 -45 15 -48 20 -3 6 -25 10 -47 10 -23 0
-54 9 -73 20 -70 43 -495 43 -613 0 -30 -11 -63 -20 -73 -20 -11 0 -37 -9 -59
-20 -22 -11 -49 -20 -60 -20 -21 0 -103 -43 -128 -67 -7 -7 -18 -13 -23 -13
-13 0 -81 -50 -92 -67 -4 -7 -15 -13 -23 -13 -22 0 -225 -208 -265 -271 -19
-30 -40 -63 -47 -74 -7 -11 -21 -39 -31 -61 -11 -23 -24 -45 -30 -48 -6 -4
-11 -15 -11 -25 0 -10 -8 -29 -19 -42 -10 -13 -21 -44 -24 -68 -3 -24 -11 -47
-17 -51 -6 -4 -16 -40 -21 -81 -6 -40 -16 -83 -22 -94 -9 -14 -13 -215 -17
-730 -4 -548 -8 -715 -18 -732 -7 -12 -16 -81 -21 -153 -5 -72 -14 -136 -20
-144 -7 -8 -16 -43 -22 -78 -5 -34 -16 -79 -23 -98 -8 -20 -17 -61 -21 -92 -4
-32 -13 -63 -21 -69 -9 -7 -14 -31 -14 -63 0 -34 -7 -61 -20 -81 -11 -16 -20
-40 -20 -53 0 -13 -9 -40 -19 -60 -37 -72 -61 -129 -61 -147 0 -17 -10 -40
-66 -160 -13 -28 -24 -56 -24 -63 0 -6 -4 -12 -8 -12 -5 0 -16 -17 -26 -38
-23 -51 -74 -154 -86 -172 -6 -8 -19 -33 -30 -55 -10 -22 -33 -58 -49 -80 -26
-35 -72 -100 -170 -243 -16 -24 -44 -58 -61 -75 -17 -18 -50 -57 -73 -87 -81
-107 -345 -370 -477 -475 -47 -37 -89 -72 -95 -79 -10 -11 -63 -51 -96 -71
-55 -34 -126 -84 -138 -98 -7 -10 -18 -17 -23 -17 -5 0 -41 -19 -80 -42 -147
-89 -164 -98 -185 -108 -13 -5 -33 -14 -45 -20 -13 -5 -30 -14 -38 -19 -39
-24 -103 -51 -121 -51 -11 0 -22 -6 -25 -14 -3 -8 -20 -18 -37 -22 -18 -3 -43
-15 -56 -25 -13 -11 -30 -19 -37 -19 -8 0 -22 -9 -31 -20 -10 -12 -30 -20 -48
-20 -16 0 -45 -9 -63 -20 -18 -11 -51 -20 -75 -20 -23 -1 -60 -9 -82 -20 -22
-11 -49 -20 -60 -20 -11 0 -33 -7 -50 -16 -16 -9 -50 -19 -75 -24 -127 -23
-221 -44 -276 -61 -33 -11 -81 -19 -105 -19 -25 0 -70 -8 -100 -18 -48 -15
-101 -17 -469 -17 -375 0 -418 2 -445 18 -20 11 -53 17 -100 17 -48 1 -83 7
-110 20 -22 11 -58 20 -80 20 -22 1 -58 7 -80 15 -22 8 -65 18 -95 21 -30 4
-65 12 -77 20 -12 7 -41 17 -65 20 -24 4 -61 15 -83 25 -22 10 -50 19 -63 19
-12 0 -39 9 -59 20 -21 11 -49 20 -64 20 -14 0 -34 9 -44 20 -10 11 -26 20
-35 20 -10 0 -29 9 -43 20 -14 11 -32 20 -40 20 -26 0 -141 47 -193 79 -27 16
-80 46 -119 66 -38 20 -83 44 -100 55 -16 11 -45 26 -64 35 -19 8 -53 31 -76
49 -23 19 -86 64 -141 101 -130 87 -386 312 -513 449 -20 22 -71 76 -113 119
-43 44 -78 84 -78 89 0 4 -42 61 -93 126 -52 64 -100 128 -107 142 -7 14 -34
56 -59 94 -60 90 -78 122 -135 236 -26 52 -52 102 -57 110 -5 8 -14 26 -20 40
-6 14 -15 32 -20 40 -12 21 -63 128 -82 171 -9 21 -19 54 -23 75 -4 22 -13 48
-20 59 -8 11 -14 26 -14 35 0 8 -11 38 -25 65 -13 28 -25 60 -25 71 0 12 -9
41 -20 65 -11 24 -20 60 -20 79 0 19 -7 48 -15 64 -8 15 -20 58 -25 95 -6 36
-15 77 -20 91 -6 14 -14 82 -19 153 -5 70 -14 133 -20 141 -11 13 -18 143 -37
746 -2 63 -4 131 -5 150 0 19 2 73 6 120 3 47 9 770 12 1608 4 1373 3 1525
-11 1547 -10 15 -12 26 -6 30 14 9 14 1002 0 1010 -8 5 -7 12 2 22 11 13 13
405 10 2112 -1 1153 2 2159 7 2236 9 147 17 176 73 260 15 22 37 48 50 58 13
9 37 28 53 40 85 66 90 67 263 67 145 0 163 -2 184 -20 12 -10 46 -39 75 -62
60 -50 85 -80 121 -146 l26 -47 2 -510 c2 -280 6 -1405 10 -2500 4 -1094 8
-2016 9 -2047 1 -31 7 -64 15 -72 10 -13 10 -16 -3 -16 -9 0 -19 -13 -23 -32
-5 -18 -8 -317 -8 -664 1 -544 3 -636 16 -662 11 -21 12 -34 5 -41 -13 -13
-15 -142 -19 -1441 -2 -867 0 -1126 9 -1165 7 -27 17 -162 22 -300 5 -153 13
-262 21 -280 7 -16 15 -83 19 -148 4 -69 12 -121 18 -125 6 -4 15 -35 19 -70
4 -38 14 -70 25 -83 11 -12 19 -32 19 -44 0 -12 9 -34 20 -48 11 -14 20 -34
20 -45 0 -18 39 -131 59 -169 26 -52 101 -213 101 -218 0 -4 15 -25 34 -48 18
-23 45 -65 58 -93 29 -57 51 -88 206 -284 119 -151 295 -331 426 -433 133
-105 190 -146 203 -147 6 0 19 -7 28 -16 36 -36 222 -147 335 -200 108 -50
136 -63 160 -69 14 -4 30 -11 36 -16 31 -25 108 -59 133 -59 16 0 57 -9 91
-20 34 -11 79 -20 99 -20 20 0 52 -8 71 -19 19 -10 65 -20 101 -23 36 -3 77
-13 90 -21 60 -40 872 -40 936 -1 13 8 44 17 70 20 27 3 74 14 106 25 31 10
69 19 83 19 14 0 38 7 53 15 16 8 48 17 72 21 24 3 69 15 99 26 57 21 78 30
171 72 31 14 63 26 71 26 9 0 21 6 27 14 7 8 24 17 39 21 15 4 32 11 38 16 6
5 42 25 80 45 150 79 390 246 461 321 12 13 26 23 31 23 16 0 269 256 315 318
23 31 55 71 71 87 16 17 36 41 44 55 9 14 31 43 49 66 18 23 33 45 33 50 0 6
7 19 15 29 59 78 145 225 145 249 0 7 9 21 20 31 11 10 20 26 20 36 0 17 40
100 60 124 11 13 55 143 65 192 3 17 12 37 20 43 7 6 17 30 20 53 4 23 13 53
20 67 7 14 16 52 20 85 4 33 13 79 21 103 8 23 14 75 14 115 0 53 5 79 18 97
16 23 17 79 22 715 5 610 7 695 22 730 10 24 19 84 22 149 3 60 11 114 16 121
6 7 14 44 19 83 5 39 16 81 25 94 9 12 16 32 16 43 0 11 7 33 15 49 9 17 20
50 26 75 6 25 15 48 20 52 6 3 25 42 43 85 18 44 46 99 62 124 16 25 34 56 41
70 42 84 173 251 278 355 145 142 211 203 243 220 15 8 54 35 87 60 33 25 71
49 84 55 12 6 47 26 76 45 28 19 57 35 63 35 14 0 114 51 130 67 7 7 31 13 52
13 28 0 42 5 49 19 7 12 26 20 62 24 28 4 56 11 63 16 6 6 43 15 81 21 38 6
74 15 80 19 5 5 43 14 84 20 41 7 96 19 121 27 68 22 578 16 630 -8 19 -8 61
-18 93 -22 33 -3 65 -12 72 -20 7 -7 45 -16 83 -19 39 -3 84 -13 101 -21 16
-9 39 -16 49 -16 11 0 31 -9 45 -20 14 -11 32 -20 40 -20 8 0 26 -9 40 -20 14
-11 31 -20 39 -20 21 0 207 -97 255 -133 24 -18 69 -51 101 -74 31 -23 64 -48
72 -55 8 -7 40 -33 70 -58 47 -39 169 -162 207 -210 148 -185 263 -354 263
-386 0 -5 15 -32 33 -60 49 -74 78 -139 84 -187 4 -23 14 -53 24 -66 11 -13
19 -36 19 -50 0 -15 9 -52 20 -84 11 -31 20 -66 20 -77 0 -11 9 -55 19 -98 13
-50 22 -133 26 -237 4 -88 11 -165 16 -171 6 -7 9 -483 9 -1194 -1 -650 1
-1184 3 -1187 12 -11 19 856 14 1646 -5 819 -6 887 -26 1041 -34 265 -100 479
-212 690 -174 331 -404 597 -689 799 -91 65 -336 195 -448 237 -215 82 -555
144 -786 144 -153 0 -433 -42 -631 -95 -335 -89 -752 -344 -978 -598 -83 -94
-185 -224 -217 -278 -14 -23 -36 -58 -49 -78 -107 -161 -234 -506 -266 -721
-9 -58 -21 -123 -27 -145 -8 -27 -12 -246 -13 -665 -3 -719 -9 -816 -74 -1110
-28 -126 -96 -349 -130 -425 -10 -21 -74 -151 -96 -195 -7 -14 -27 -54 -45
-90 -42 -84 -91 -165 -159 -265 -59 -86 -59 -87 -172 -226 -207 -255 -546
-527 -844 -678 -280 -142 -336 -163 -755 -277 -110 -29 -375 -54 -584 -54
-180 0 -409 17 -491 35 -329 74 -614 172 -800 276 -27 15 -79 42 -115 61 -257
131 -680 510 -869 778 -118 168 -131 188 -210 320 -34 56 -158 328 -199 435
-17 44 -40 118 -52 165 -12 47 -28 111 -36 143 -8 32 -21 117 -29 190 -9 73
-20 155 -26 182 -8 34 -13 510 -16 1496 -4 1341 -4 1446 12 1459 12 10 21 11
32 4 18 -11 153 -270 153 -294 0 -8 6 -24 14 -35 18 -26 85 -215 101 -285 7
-30 20 -68 29 -85 9 -16 16 -43 16 -58 0 -15 7 -44 15 -65 9 -20 20 -79 25
-132 5 -52 15 -122 22 -155 8 -43 12 -283 12 -870 1 -801 2 -811 24 -930 13
-66 32 -151 43 -190 10 -38 19 -80 19 -91 0 -12 9 -41 20 -65 11 -24 20 -55
20 -69 0 -23 23 -92 55 -165 8 -16 18 -46 24 -65 17 -56 155 -324 208 -403
173 -263 424 -536 598 -652 22 -15 49 -35 60 -45 46 -41 378 -220 408 -220 7
0 29 -9 50 -20 20 -11 43 -20 50 -20 7 0 29 -9 50 -20 20 -11 47 -20 59 -20
13 0 43 -9 67 -20 24 -11 51 -20 60 -20 9 0 45 -8 81 -19 99 -29 367 -61 515
-61 149 0 480 40 537 64 21 9 48 16 62 16 13 0 43 9 67 20 24 11 54 20 67 20
12 0 39 9 59 20 21 11 43 20 50 20 27 0 331 149 371 182 9 7 37 24 62 38 69
36 275 204 374 305 161 164 300 338 354 445 6 14 23 43 36 65 72 121 172 341
195 431 5 17 15 44 24 60 27 52 46 117 67 229 19 107 20 150 20 1370 0 1103
-2 1270 -16 1344 -15 79 -41 147 -70 181 -7 8 -29 34 -49 56 -19 23 -61 55
-92 70 -55 28 -60 29 -212 29 -152 -1 -157 -2 -210 -29 -59 -31 -95 -65 -142
-134 -52 -76 -70 -122 -89 -221 -18 -90 -19 -158 -18 -1111 2 -1030 -5 -1293
-36 -1403 -8 -29 -19 -70 -24 -92 -31 -124 -123 -305 -229 -450 -81 -112 -247
-275 -349 -343 -63 -42 -186 -112 -234 -134 -14 -6 -43 -19 -65 -29 -90 -39
-237 -73 -395 -90 -200 -22 -484 22 -660 103 -87 39 -185 91 -203 106 -9 8
-25 20 -36 26 -44 26 -98 66 -126 92 -16 16 -52 48 -80 73 -129 116 -288 351
-355 526 -13 33 -31 78 -40 100 -28 63 -42 106 -52 160 -5 28 -16 84 -24 125
-28 147 -35 402 -28 1000 5 421 3 612 -5 680 -7 52 -18 149 -26 215 -7 66 -20
147 -29 180 -9 32 -16 76 -16 97 0 21 -7 55 -15 75 -8 21 -18 61 -24 88 -5 28
-14 64 -20 80 -5 17 -22 71 -37 120 -45 152 -71 223 -124 340 -10 22 -28 65
-40 95 -12 30 -26 63 -31 73 -57 111 -93 177 -109 202 -11 17 -27 44 -35 60
-29 56 -189 302 -271 415 -86 120 -292 351 -440 495 l-134 130 0 2517 c0 2468
-1 2518 -20 2580 -44 144 -153 255 -287 293 -95 27 -269 18 -344 -17 -110 -50
-213 -170 -242 -279 -16 -59 -17 -228 -20 -2269 l-2 -2205 -23 -3 c-12 -2 -37
4 -55 13 -17 9 -50 23 -72 30 -22 8 -98 34 -170 60 -163 58 -247 84 -307 95
-27 5 -58 16 -70 24 -12 9 -37 16 -54 16 -17 0 -51 7 -75 16 -74 27 -424 63
-614 64 -192 0 -614 -40 -680 -64 -22 -8 -57 -15 -78 -16 -21 0 -55 -9 -77
-20 -22 -11 -53 -20 -70 -20 -17 0 -43 -6 -58 -14 -15 -8 -46 -17 -67 -21 -22
-4 -53 -13 -70 -21 -16 -7 -48 -20 -70 -27 -96 -35 -112 -41 -155 -60 -25 -11
-52 -24 -60 -28 -8 -4 -62 -32 -120 -61 -58 -29 -126 -67 -152 -85 -65 -45
-119 -66 -132 -53 -8 8 -12 697 -14 2336 -2 2296 -3 2326 -22 2369 -11 24 -20
51 -20 59 0 8 -31 46 -69 85 -52 53 -79 72 -112 81 -24 7 -50 17 -57 22 -13
11 -267 22 -292 12z"/><path d="M13400 14263 c-173 -29 -287 -74 -397 -157 -141 -106 -216 -222 -259
-402 -23 -94 -26 -123 -21 -209 11 -192 95 -390 220 -515 87 -88 132 -119 221
-155 145 -58 275 -70 436 -41 167 29 317 116 439 253 61 68 99 140 141 262 32
93 32 97 27 235 -4 125 -8 150 -34 222 -48 128 -82 182 -173 274 -138 139
-240 195 -406 224 -86 15 -142 18 -194 9z m235 -39 c22 -8 49 -18 60 -20 47
-13 135 -61 195 -109 36 -28 73 -56 82 -61 9 -5 27 -25 40 -44 13 -19 40 -58
60 -86 19 -27 39 -61 43 -75 4 -13 15 -35 25 -49 10 -14 20 -41 23 -60 3 -19
12 -55 22 -80 20 -55 19 -245 -3 -259 -7 -4 -15 -31 -19 -59 -3 -31 -13 -58
-24 -68 -11 -10 -19 -22 -19 -29 0 -29 -68 -143 -110 -184 -68 -67 -185 -161
-201 -161 -8 0 -23 -6 -34 -14 -11 -8 -54 -26 -96 -40 -68 -23 -90 -26 -220
-26 -168 0 -236 15 -360 80 -80 42 -259 235 -259 280 0 12 -9 38 -19 58 -61
118 -63 130 -64 308 0 152 2 174 22 216 11 26 21 52 21 58 0 18 50 112 86 161
37 51 206 189 231 189 4 0 25 9 47 19 108 52 186 70 311 70 84 0 132 -4 160
-15z"/><path d="M26405 13776 c-84 -13 -148 -34 -255 -85 -121 -59 -176 -99 -275
-203 -120 -127 -130 -144 -221 -356 -49 -114 -69 -330 -44 -477 13 -80 60
-226 97 -300 90 -179 278 -359 453 -435 85 -36 233 -80 270 -79 l25 0 -25 13
c-14 8 -41 17 -60 21 -19 4 -53 15 -75 24 -22 10 -74 31 -115 47 -87 33 -135
63 -208 131 -29 26 -68 59 -86 73 -19 14 -46 47 -62 75 -15 27 -40 66 -55 85
-37 46 -79 126 -89 170 -5 19 -16 55 -26 80 -16 38 -18 74 -17 246 2 194 3
203 31 285 16 47 34 94 40 105 6 10 22 44 36 74 38 81 80 136 176 227 82 79
142 125 184 144 12 5 28 13 36 18 35 22 108 51 155 61 27 6 56 16 64 23 9 8
75 13 202 15 162 3 193 1 221 -13 18 -10 51 -19 73 -22 71 -9 161 -53 293
-145 19 -13 73 -62 120 -110 77 -76 94 -101 149 -210 92 -182 103 -214 103
-305 1 -43 5 -98 10 -123 10 -55 -13 -253 -34 -285 -8 -12 -18 -40 -22 -61 -9
-49 -38 -108 -78 -159 -18 -22 -38 -54 -45 -72 -7 -17 -45 -61 -84 -98 -40
-37 -92 -87 -117 -111 -25 -24 -50 -44 -56 -44 -7 0 -17 -6 -23 -13 -6 -8 -30
-19 -53 -27 -24 -7 -52 -18 -63 -26 -11 -8 -28 -14 -38 -14 -10 0 -30 -9 -45
-19 -15 -11 -48 -22 -74 -26 -49 -6 -89 -35 -49 -35 11 0 38 6 58 14 21 8 70
24 108 36 88 28 146 57 228 115 115 80 276 269 321 378 9 20 22 52 30 70 67
159 89 414 47 550 -5 18 -12 49 -16 71 -3 21 -10 46 -15 55 -4 9 -26 55 -48
103 -94 203 -236 347 -457 464 -156 82 -380 112 -600 80z"/><path d="M26387 13660 c-20 -11 -54 -20 -75 -20 -21 0 -46 -6 -57 -14 -11 -7
-33 -16 -50 -20 -16 -4 -50 -24 -74 -44 -25 -20 -72 -54 -105 -77 -62 -41
-177 -173 -208 -237 -75 -157 -95 -220 -101 -315 -3 -47 -1 -83 4 -83 5 0 9
23 9 51 0 28 7 77 15 108 19 71 72 213 83 220 4 3 18 23 30 45 35 59 101 133
172 193 186 154 499 239 690 188 72 -19 80 -18 51 5 -21 18 -39 20 -185 20
-142 0 -166 -2 -199 -20z"/><path d="M26815 13633 c57 -15 178 -70 236 -108 141 -95 312 -316 339 -440 5
-22 16 -67 24 -100 20 -77 21 -280 1 -355 -29 -115 -44 -157 -84 -231 -60
-113 -163 -226 -272 -298 -98 -65 -99 -86 -2 -25 85 54 176 137 217 196 19 29
48 71 63 94 16 22 37 67 47 100 10 32 26 82 36 109 10 28 22 75 25 105 4 30
14 76 23 102 15 44 15 50 0 80 -9 18 -19 54 -22 81 -3 26 -15 67 -26 92 -11
24 -20 59 -20 77 0 36 -24 80 -112 212 -57 85 -80 106 -264 244 -31 23 -67 42
-79 42 -13 0 -36 7 -51 15 -16 8 -45 14 -64 14 -22 -1 -27 -3 -15 -6z"/><path d="M26266 13232 c-15 -17 -16 -61 -14 -478 l3 -458 27 -15 c25 -14 29
-14 55 5 l28 21 5 187 c6 229 0 220 140 213 85 -3 100 -7 146 -35 28 -18 54
-32 58 -32 16 0 -17 40 -50 61 -32 20 -50 22 -155 22 -82 1 -122 -3 -133 -12
-14 -11 -16 -43 -16 -202 0 -183 -1 -188 -22 -203 -29 -21 -45 -20 -57 2 -5 9
-11 202 -13 437 -3 471 -3 477 60 483 45 5 40 22 -6 22 -25 0 -45 -7 -56 -18z"/><path d="M26458 13243 c12 -2 30 -2 40 0 9 3 -1 5 -23 4 -22 0 -30 -2 -17 -4z"/><path d="M26753 13236 c26 -6 51 -16 55 -23 4 -6 25 -14 47 -18 22 -4 48 -16
58 -26 10 -11 22 -19 27 -19 4 0 11 -13 15 -30 4 -16 13 -30 21 -30 11 0 14
-19 14 -90 0 -96 -1 -98 -65 -157 -16 -16 -40 -38 -52 -50 -13 -13 -30 -23
-37 -23 -20 0 -66 -39 -66 -56 0 -15 2 -18 42 -66 58 -69 73 -88 129 -162 32
-43 59 -83 59 -89 0 -6 10 -21 22 -34 28 -30 16 -42 -46 -45 l-48 -3 -48 89
c-49 91 -80 132 -80 107 0 -7 16 -39 35 -71 19 -32 35 -62 35 -67 0 -18 60
-81 89 -93 36 -15 99 -6 108 15 6 17 -36 95 -123 226 -35 53 -64 101 -64 107
0 6 -13 22 -30 35 -16 14 -30 30 -30 35 0 13 58 62 72 62 17 0 108 93 108 110
0 8 9 29 20 45 12 19 20 47 20 75 0 28 -8 56 -20 75 -11 17 -20 39 -20 50 -1
22 -40 68 -86 101 -22 16 -50 22 -119 26 -83 5 -86 5 -42 -6z"/><path d="M26383 13145 c-22 -15 -23 -22 -23 -160 0 -143 0 -144 26 -164 24
-19 40 -21 175 -21 125 0 159 3 211 21 96 32 112 53 116 147 3 92 -7 115 -68
157 l-45 30 -185 3 c-157 3 -188 1 -207 -13z m414 -34 c84 -33 100 -177 26
-243 -26 -23 -131 -38 -279 -38 -162 0 -160 -1 -169 146 -7 107 -6 113 15 134
21 21 27 22 198 18 108 -3 190 -10 209 -17z"/><path d="M25721 12697 c-1 -89 12 -146 60 -257 39 -89 99 -175 179 -255 107
-108 301 -210 436 -229 23 -3 54 -13 70 -21 44 -23 188 -20 239 5 22 11 57 19
78 20 41 0 137 40 158 67 10 11 -1 8 -36 -9 -93 -46 -137 -53 -335 -53 -178 1
-188 2 -260 29 -147 56 -247 120 -351 227 -77 78 -105 116 -137 181 -57 116
-83 199 -92 298 l-7 85 -2 -88z"/><path d="M24721 12287 c-220 -216 -430 -410 -581 -534 -25 -21 -68 -57 -95
-80 -282 -238 -610 -492 -786 -609 -213 -142 -247 -165 -283 -184 -21 -12 -70
-42 -110 -68 -95 -61 -520 -275 -601 -302 -85 -28 -126 -24 -136 13 -4 16 -8
335 -9 710 -1 745 -2 762 -60 890 -45 100 -87 156 -147 194 -85 54 -125 64
-251 65 -104 0 -117 -2 -168 -28 -73 -37 -136 -93 -183 -163 -58 -86 -72 -117
-98 -226 l-24 -100 8 -1060 c12 -1601 10 -2929 -4 -3056 -13 -112 -53 -245
-115 -380 -70 -151 -225 -334 -378 -445 -77 -55 -169 -109 -210 -123 -19 -6
-46 -18 -60 -26 l-25 -14 36 -1 c21 0 42 7 49 15 7 8 20 15 29 15 22 0 107 46
156 85 22 17 52 39 66 48 51 31 153 133 223 222 91 117 116 152 116 165 0 11
39 101 65 150 7 14 16 41 20 60 4 19 14 44 21 55 8 11 14 34 14 52 0 19 9 59
21 91 20 57 20 60 20 2102 -1 1125 -1 2071 -1 2102 -1 148 121 340 256 402 42
19 81 28 143 32 134 9 221 -19 301 -99 50 -50 65 -73 114 -177 31 -67 35 -175
36 -845 0 -369 4 -687 9 -708 11 -45 37 -77 61 -77 10 0 31 7 46 15 16 8 36
15 44 15 23 0 128 45 148 63 10 10 25 17 34 17 8 0 27 9 41 20 14 11 34 20 44
20 10 0 27 6 38 14 11 7 34 16 50 20 17 4 39 16 50 26 11 10 61 41 111 67 139
74 154 83 228 132 111 74 119 80 151 96 17 8 50 30 75 48 77 57 173 125 230
164 30 20 63 44 72 52 23 21 57 48 153 120 44 33 89 68 99 77 11 10 75 62 142
116 68 54 127 104 131 111 4 6 26 26 48 42 22 16 65 52 95 78 30 27 82 72 114
101 118 102 274 247 426 395 85 83 162 151 172 151 9 0 30 -12 46 -27 16 -16
91 -86 167 -158 263 -248 385 -368 390 -385 3 -10 -8 -32 -27 -56 -39 -46
-187 -195 -279 -279 -191 -174 -249 -227 -294 -263 -28 -21 -61 -52 -75 -67
-14 -15 -51 -47 -83 -71 -32 -23 -97 -79 -145 -124 -48 -44 -99 -88 -114 -98
-14 -9 -57 -44 -96 -77 -130 -112 -290 -239 -387 -305 -20 -14 -55 -40 -78
-58 -23 -18 -76 -55 -117 -82 -41 -27 -93 -63 -115 -79 -22 -17 -47 -34 -55
-38 -8 -4 -26 -14 -40 -23 -66 -45 -139 -90 -145 -90 -4 0 -21 -10 -38 -22
-18 -13 -48 -31 -67 -42 -19 -10 -60 -35 -90 -55 -30 -20 -81 -49 -112 -64
-129 -60 -254 -125 -294 -152 -17 -11 -24 -25 -24 -48 0 -29 7 -39 55 -73 31
-21 75 -56 98 -77 23 -21 74 -62 113 -92 40 -29 75 -58 79 -64 3 -6 59 -54
123 -106 239 -194 294 -245 617 -565 295 -292 492 -501 542 -575 15 -22 36
-49 47 -59 15 -16 168 -207 232 -291 45 -59 135 -187 149 -212 8 -15 23 -40
33 -54 9 -14 24 -37 33 -50 9 -13 36 -58 60 -99 24 -41 46 -77 49 -80 3 -3 11
-16 18 -30 7 -14 24 -43 37 -65 13 -22 56 -105 95 -185 39 -80 80 -162 90
-182 11 -20 20 -45 20 -55 0 -10 7 -26 15 -36 7 -11 17 -38 20 -60 4 -23 13
-51 20 -63 8 -12 17 -39 21 -60 3 -21 13 -51 20 -65 7 -14 16 -50 20 -80 4
-30 13 -70 21 -89 7 -19 17 -61 20 -93 4 -36 13 -67 25 -80 l19 -22 -4 30
c-25 168 -120 505 -177 630 -5 11 -26 60 -46 109 -41 103 -124 265 -154 303
-11 14 -20 31 -20 37 0 10 -110 195 -185 311 -92 143 -350 483 -509 670 -176
206 -776 800 -1002 991 -104 88 -211 177 -239 199 -145 117 -286 238 -295 255
-26 49 -3 73 136 141 56 27 104 49 108 49 16 0 238 134 434 261 48 31 101 64
117 73 17 9 57 36 90 60 33 25 107 77 164 116 117 80 192 138 415 320 229 187
389 321 406 340 8 10 67 61 130 115 271 228 640 590 640 628 0 41 -37 83 -246
278 -115 107 -241 227 -279 267 -55 56 -77 72 -99 72 -24 0 -58 -28 -185 -153z"/><path d="M26505 11840 c-26 -5 1 -7 80 -7 90 0 109 1 75 8 -53 9 -100 9 -155
-1z"/><path d="M17846 10390 c9 -120 11 -899 5 -1790 -2 -326 0 -589 7 -695 7 -93
14 -206 16 -250 11 -200 92 -491 182 -660 9 -16 32 -61 51 -100 72 -144 174
-285 320 -443 130 -140 367 -327 513 -404 25 -13 56 -31 70 -40 74 -49 325
-140 463 -168 26 -5 71 -16 100 -24 59 -17 301 -46 407 -49 61 -2 363 33 410
48 25 7 65 17 90 20 126 18 442 138 570 216 173 106 298 205 455 363 200 201
292 336 428 626 59 125 120 341 159 557 22 125 23 144 23 790 0 740 -4 702 67
689 29 -5 159 -93 209 -141 9 -8 54 -46 101 -83 46 -37 117 -94 158 -127 40
-33 87 -71 105 -85 63 -48 322 -289 485 -451 380 -377 558 -571 695 -755 86
-115 207 -281 240 -329 123 -178 281 -485 325 -630 6 -22 16 -53 22 -70 6 -16
15 -48 20 -70 6 -22 19 -69 29 -105 31 -112 59 -250 59 -294 0 -76 21 -156 45
-172 23 -15 13 -15 295 16 306 34 460 51 508 56 29 4 60 13 68 21 26 27 18
149 -20 298 -3 11 -3 -41 0 -116 4 -121 3 -137 -13 -151 -38 -33 -71 -40 -222
-49 -89 -6 -165 -15 -176 -22 -14 -8 -85 -13 -222 -15 l-203 -3 -9 23 c-20 52
-31 108 -40 207 -6 57 -15 107 -21 111 -6 4 -15 35 -20 69 -5 34 -14 68 -20
76 -6 7 -14 40 -17 72 -3 32 -12 68 -19 80 -8 12 -14 31 -14 41 0 10 -20 58
-45 106 -25 49 -45 95 -45 103 0 8 -9 26 -20 40 -11 14 -20 32 -20 40 0 8 -9
26 -20 40 -11 14 -20 33 -20 41 0 9 -7 23 -15 32 -8 9 -26 38 -40 65 -34 64
-76 128 -92 138 -7 4 -13 14 -13 22 0 13 -43 83 -58 95 -4 3 -16 19 -28 35
-11 17 -42 62 -68 100 -27 39 -54 75 -60 80 -7 6 -26 30 -43 55 -124 179 -754
828 -1065 1097 -106 93 -199 170 -251 210 -23 17 -49 38 -57 45 -50 44 -133
108 -139 108 -4 0 -32 23 -62 50 -29 28 -72 62 -94 77 -22 15 -50 37 -63 50
-27 27 -69 40 -90 27 -38 -25 -40 -60 -40 -815 0 -650 -2 -732 -16 -754 -9
-13 -20 -55 -26 -93 -5 -38 -15 -83 -21 -98 -6 -16 -14 -49 -19 -74 -7 -40
-34 -113 -99 -270 -30 -72 -40 -93 -66 -135 -13 -22 -27 -47 -31 -55 -4 -8
-15 -26 -24 -40 -10 -14 -34 -52 -55 -85 -21 -33 -50 -77 -64 -98 -37 -57
-253 -272 -348 -347 -136 -108 -181 -140 -192 -140 -5 0 -22 -11 -37 -25 -15
-14 -32 -25 -39 -25 -7 0 -20 -9 -30 -20 -10 -11 -23 -20 -29 -20 -6 0 -28 -9
-49 -20 -20 -11 -42 -20 -48 -20 -13 0 -91 -34 -141 -60 -20 -11 -45 -20 -55
-20 -10 0 -63 -16 -118 -36 -55 -20 -131 -40 -170 -44 -38 -4 -83 -15 -100
-24 -44 -24 -590 -24 -637 0 -17 9 -63 19 -103 23 -44 4 -78 13 -88 22 -8 9
-37 19 -63 23 -26 3 -52 10 -58 15 -6 4 -33 14 -60 20 -27 7 -58 19 -70 27
-11 7 -27 14 -35 14 -7 0 -32 8 -55 19 -113 51 -138 61 -151 61 -8 0 -18 6
-22 13 -4 8 -28 27 -53 42 -84 53 -185 120 -196 130 -6 5 -46 39 -89 75 -43
36 -95 81 -114 101 -109 109 -173 181 -216 244 -26 39 -55 79 -65 90 -17 20
-36 52 -64 112 -9 17 -20 34 -25 37 -5 4 -12 19 -16 35 -3 16 -15 37 -26 47
-10 9 -19 27 -19 39 0 12 -9 30 -20 40 -11 10 -20 27 -20 38 0 10 -6 31 -14
45 -14 27 -50 135 -82 247 -9 33 -19 98 -22 145 -3 47 -11 94 -17 105 -23 37
-27 278 -26 1525 1 709 -2 1256 -8 1283 -5 27 -14 54 -21 60 -10 10 -10 -12
-4 -103z"/><path d="M18758 7885 c-12 -20 8 -228 25 -262 9 -18 17 -48 17 -68 0 -20 6
-48 14 -63 7 -15 17 -46 21 -69 4 -24 13 -46 20 -51 8 -4 17 -16 22 -27 26
-64 139 -220 215 -297 131 -133 350 -288 406 -288 10 0 31 -8 47 -18 17 -11
48 -22 70 -26 22 -4 56 -13 75 -21 89 -37 492 -33 590 5 28 11 59 20 69 20 10
0 26 9 36 20 21 23 7 26 -33 7 -56 -29 -245 -57 -377 -57 -430 1 -805 220
-1041 610 -91 151 -144 322 -163 535 -3 33 -9 55 -13 50z"/><path d="M18272 5003 c-12 -2 -26 -13 -32 -23 -11 -20 -15 -2234 -4 -2252 13
-20 74 -38 131 -38 68 0 122 23 140 60 10 20 13 258 12 1100 0 1164 1 1129
-54 1150 -26 10 -148 12 -193 3z"/><path d="M15280 4859 c-47 -11 -98 -26 -115 -34 -100 -45 -126 -60 -178 -108
-32 -30 -64 -63 -70 -75 -7 -11 -26 -45 -43 -74 -69 -118 -73 -362 -8 -495 41
-84 131 -181 224 -246 47 -32 99 -64 115 -71 17 -7 59 -27 95 -43 36 -17 76
-36 90 -42 14 -6 32 -15 40 -20 8 -5 26 -14 40 -20 110 -49 214 -128 265 -201
29 -42 30 -47 30 -154 0 -102 -2 -115 -27 -156 -49 -84 -121 -136 -230 -166
-91 -25 -180 -29 -238 -10 -27 9 -61 16 -77 16 -16 0 -45 9 -66 20 -20 11 -45
20 -54 20 -10 0 -33 9 -51 20 -18 11 -38 20 -45 20 -6 0 -39 19 -72 40 -33 22
-67 39 -75 38 -8 -2 -25 -18 -37 -37 -29 -42 -32 -144 -7 -194 20 -39 64 -87
80 -87 6 0 23 -9 37 -20 14 -11 31 -20 39 -20 7 0 30 -9 51 -20 20 -11 46 -20
57 -20 11 0 48 -10 82 -21 54 -19 84 -22 228 -22 144 0 174 3 228 22 34 11 68
21 76 21 8 0 51 19 96 42 79 41 163 111 208 173 33 45 72 105 72 111 0 3 10
26 22 52 21 43 23 62 23 212 0 152 -2 168 -23 205 -12 22 -22 44 -22 48 0 12
-54 82 -104 135 -38 41 -150 122 -206 149 -14 7 -32 17 -40 22 -8 5 -53 27
-100 49 -209 97 -263 126 -328 176 -87 67 -131 141 -139 231 -5 54 -2 67 26
120 51 99 96 136 199 166 80 23 152 24 218 4 27 -8 58 -15 69 -15 22 0 202
-86 223 -107 17 -16 74 -17 90 -1 8 8 12 49 12 119 l0 107 -41 36 c-23 19 -58
41 -78 47 -20 7 -45 18 -56 24 -11 7 -42 16 -70 20 -27 3 -69 13 -93 21 -62
21 -237 17 -342 -7z"/><path d="M21896 4852 c-21 -16 -51 -45 -67 -67 -25 -33 -29 -48 -29 -103 0
-74 27 -129 86 -176 30 -23 49 -30 103 -34 84 -6 126 11 174 70 37 45 37 46
37 138 0 85 -2 95 -26 124 -48 56 -91 75 -169 75 -60 0 -75 -4 -109 -27z"/><path d="M7913 4851 c-75 -13 -90 -46 -54 -118 10 -21 31 -63 46 -93 15 -30
74 -145 130 -255 57 -110 118 -229 135 -265 70 -142 187 -377 252 -500 23 -44
23 -50 28 -450 6 -455 4 -446 78 -468 58 -18 134 -15 186 7 l45 20 3 408 c3
360 5 412 20 438 9 17 30 59 47 95 17 36 36 73 41 83 6 9 15 25 20 35 6 9 15
28 21 42 6 14 17 36 24 50 15 29 42 84 115 230 56 114 106 214 150 300 196
386 194 381 163 419 -18 22 -27 24 -119 25 -108 1 -154 -12 -173 -47 -6 -12
-15 -29 -20 -37 -6 -8 -29 -55 -51 -105 -23 -49 -80 -169 -127 -265 -47 -96
-90 -188 -97 -205 -18 -41 -54 -121 -77 -170 -10 -22 -30 -66 -44 -97 -13 -32
-31 -58 -38 -58 -8 0 -22 19 -32 43 -10 23 -26 60 -36 82 -10 22 -23 51 -28
65 -6 14 -15 32 -20 40 -5 8 -19 38 -31 65 -32 75 -70 158 -80 175 -17 27
-136 274 -194 400 -28 63 -43 82 -71 97 -27 14 -160 23 -212 14z"/><path d="M20885 4681 c-47 -10 -55 -38 -55 -212 0 -129 -3 -159 -15 -169 -10
-8 -52 -14 -113 -16 -91 -2 -98 -4 -119 -29 -19 -21 -23 -38 -23 -90 0 -59 2
-66 33 -94 31 -30 36 -31 122 -31 50 0 95 -4 102 -8 9 -5 12 -143 15 -532 l3
-525 27 -64 c15 -35 39 -79 53 -97 23 -30 106 -94 123 -94 4 0 21 -8 37 -18
25 -14 56 -17 185 -17 140 0 160 2 202 23 66 32 93 79 92 161 0 54 -4 67 -23
82 -30 24 -55 24 -111 -2 -28 -13 -68 -21 -107 -22 -55 -2 -65 1 -99 29 -21
16 -50 53 -65 82 l-28 51 -1 465 c-1 256 1 470 5 476 10 16 720 14 733 -3 8
-9 11 -204 11 -644 0 -415 3 -638 10 -651 24 -45 185 -55 239 -15 18 13 29 34
34 59 11 62 9 1395 -2 1436 -21 73 7 69 -526 71 -264 1 -485 6 -491 10 -10 6
-13 49 -13 159 0 178 -10 212 -69 228 -39 11 -118 11 -166 1z"/><path d="M9885 4304 c-154 -48 -203 -72 -305 -153 -48 -38 -140 -148 -140
-168 0 -3 -6 -14 -14 -22 -20 -23 -63 -138 -71 -191 -4 -25 -13 -70 -21 -100
-42 -165 10 -555 88 -659 10 -13 18 -28 18 -34 0 -12 63 -91 103 -130 71 -67
190 -128 312 -159 63 -16 354 -13 396 4 19 8 52 18 73 22 22 4 51 16 64 27 14
10 31 19 38 19 42 0 220 158 258 227 42 79 75 155 95 216 44 135 44 503 -1
637 -28 85 -25 79 -53 125 -13 22 -33 56 -44 75 -38 67 -186 200 -223 200 -5
0 -27 9 -47 20 -20 11 -72 29 -115 40 -101 25 -332 28 -411 4z m280 -234 c86
-14 138 -39 193 -93 57 -55 122 -169 122 -212 0 -14 7 -39 15 -56 20 -38 32
-273 17 -344 -47 -234 -103 -324 -254 -406 -63 -34 -64 -34 -193 -34 -142 0
-168 8 -272 83 -116 86 -182 289 -170 529 7 147 28 239 74 323 71 129 160 193
293 210 77 10 117 10 175 0z"/><path d="M13481 4289 c-60 -29 -166 -121 -204 -178 -10 -15 -22 -21 -31 -18
-12 5 -16 22 -16 75 0 55 -4 75 -21 96 -19 25 -25 26 -109 26 -72 0 -92 -4
-111 -19 l-24 -19 -3 -746 c-1 -476 1 -753 7 -765 28 -51 184 -71 249 -31 l32
20 0 467 c0 303 4 482 11 508 22 83 149 243 244 307 35 24 49 28 120 28 63 0
86 -4 110 -20 36 -24 78 -26 95 -5 31 37 20 264 -13 265 -7 1 -30 9 -52 20
-30 15 -62 19 -130 20 -80 0 -97 -4 -154 -31z"/><path d="M16879 4296 c-48 -13 -97 -31 -110 -40 -13 -9 -29 -16 -36 -16 -24 0
-136 -85 -192 -146 -31 -35 -70 -89 -85 -121 -15 -32 -32 -65 -37 -73 -5 -8
-11 -19 -12 -25 -2 -5 -12 -32 -22 -60 -9 -27 -24 -111 -33 -186 -13 -122 -13
-152 1 -285 8 -82 22 -171 32 -199 34 -101 99 -217 152 -270 56 -57 136 -115
157 -115 7 0 25 -9 39 -20 14 -11 32 -20 41 -20 8 0 39 -9 68 -21 46 -18 75
-21 218 -21 144 -1 175 2 240 22 186 55 310 145 407 293 51 78 78 150 98 257
8 41 19 93 24 115 13 48 13 232 1 295 -44 238 -58 279 -128 383 -42 63 -99
119 -179 175 -18 12 -35 22 -39 22 -4 0 -26 9 -48 19 -136 65 -388 82 -557 37z
m377 -243 c78 -24 176 -119 223 -216 56 -113 74 -316 47 -509 -12 -82 -21
-110 -60 -182 -53 -96 -99 -141 -196 -189 -62 -31 -70 -32 -185 -32 -116 0
-122 1 -189 34 -122 60 -192 153 -232 311 -15 59 -19 109 -18 235 0 145 3 168
28 247 14 47 43 110 62 140 40 60 129 136 183 156 89 35 237 37 337 5z"/><path d="M23125 4311 c-16 -5 -55 -16 -85 -24 -30 -8 -68 -22 -85 -31 -16 -9
-33 -16 -37 -16 -19 0 -133 -88 -180 -140 -81 -87 -126 -163 -143 -238 -3 -17
-13 -36 -21 -43 -8 -6 -14 -29 -14 -51 0 -21 -7 -55 -15 -75 -43 -102 -18
-463 39 -568 9 -16 16 -36 16 -44 0 -30 75 -154 124 -204 52 -54 128 -110 164
-121 11 -4 26 -13 32 -21 7 -8 24 -15 39 -15 14 0 40 -7 56 -16 37 -20 207
-34 330 -27 78 4 188 29 235 54 8 4 44 22 80 41 104 53 216 173 277 298 76
156 102 427 65 685 -15 111 -66 233 -130 315 -43 54 -123 130 -138 130 -6 0
-19 9 -29 20 -10 11 -22 20 -28 20 -5 0 -23 7 -40 15 -100 46 -160 57 -322 61
-88 2 -173 -1 -190 -5z m351 -271 c111 -53 181 -145 223 -293 21 -71 22 -93
19 -270 -4 -171 -7 -200 -29 -262 -29 -82 -93 -173 -152 -216 -80 -58 -123
-71 -245 -77 -107 -4 -118 -3 -182 23 -137 55 -220 158 -255 318 -26 116 -17
436 14 521 31 87 64 138 123 191 91 82 173 107 326 100 78 -4 104 -10 158 -35z"/><path d="M25011 4299 c-36 -12 -76 -28 -90 -37 -77 -47 -130 -84 -161 -111
-52 -47 -74 -39 -80 29 -10 100 -29 114 -150 113 -70 -1 -76 -3 -102 -32 l-28
-31 0 -728 c0 -400 3 -736 6 -748 20 -74 245 -85 281 -14 8 17 12 161 13 528
0 411 3 509 15 531 7 14 44 56 82 92 174 169 258 202 393 159 82 -26 134 -75
178 -167 l27 -58 5 -540 c3 -297 8 -545 13 -552 16 -24 95 -46 154 -41 86 6
117 24 123 73 3 22 3 292 0 600 -5 490 -8 564 -22 595 -9 19 -28 62 -43 96
-28 66 -119 163 -187 202 -113 64 -299 81 -427 41z"/><path d="M11282 4290 c-35 -4 -68 -12 -75 -19 -9 -9 -12 -153 -12 -584 l0
-572 24 -70 c13 -38 28 -77 33 -85 4 -8 15 -29 23 -46 20 -44 102 -132 144
-155 20 -10 43 -24 51 -29 65 -41 114 -52 239 -52 114 -1 133 2 196 26 39 15
77 34 86 42 8 8 18 14 22 14 11 0 96 61 124 89 59 58 83 46 83 -43 0 -72 5
-81 53 -101 49 -20 113 -19 165 5 l42 19 0 758 c0 417 -4 763 -8 769 -16 24
-55 34 -139 34 -64 0 -95 -4 -111 -16 l-22 -15 0 -527 0 -527 -97 -96 c-54
-53 -111 -103 -128 -112 -165 -87 -203 -94 -295 -51 -89 41 -131 90 -172 200
-21 57 -22 77 -27 583 l-6 524 -25 17 c-31 23 -87 29 -168 20z"/><path d="M19088 4291 c-111 -10 -102 28 -106 -484 -5 -659 9 -779 105 -925 37
-55 126 -135 173 -154 14 -6 45 -18 70 -28 87 -36 270 -32 375 7 57 21 180 99
236 150 54 49 67 40 71 -48 3 -64 6 -74 29 -92 18 -12 48 -21 90 -24 54 -3 70
0 104 19 l40 24 3 751 c2 708 1 752 -16 773 -23 28 -98 43 -176 34 -104 -12
-96 32 -96 -554 l0 -510 -24 -38 c-51 -81 -182 -194 -283 -243 -65 -32 -159
-32 -223 1 -64 33 -122 99 -154 177 l-29 68 -4 505 c-2 278 -4 513 -3 522 0
28 -42 66 -80 70 -19 3 -65 2 -102 -1z"/></g><g transform="translate(0,2064) scale(0.1,-0.1)" fill="#D12126"><path d="M8074 19092 c-84 -55 -100 -67 -125 -92 -30 -30 -57 -70 -83 -125
-13 -29 -21 -78 -27 -180 -5 -77 -8 -1083 -7 -2236 3 -1707 1 -2099 -10 -2112
-9 -10 -10 -17 -2 -22 14 -8 14 -1001 0 -1010 -6 -4 -4 -15 6 -30 14 -22 15
-174 11 -1547 -3 -838 -9 -1561 -12 -1608 -4 -47 -6 -101 -6 -120 1 -19 3 -87
5 -150 19 -603 26 -733 37 -746 6 -8 15 -71 20 -141 5 -71 13 -139 19 -153 5
-14 14 -55 20 -91 5 -37 17 -80 25 -95 8 -16 15 -45 15 -64 0 -19 9 -55 20
-79 11 -24 20 -53 20 -65 0 -11 12 -43 25 -71 14 -27 25 -57 25 -65 0 -9 6
-24 14 -35 7 -11 16 -37 20 -59 4 -21 14 -54 23 -75 19 -43 70 -150 82 -171 5
-8 14 -26 20 -40 6 -14 15 -32 20 -40 5 -8 31 -58 57 -110 57 -114 75 -146
135 -236 25 -38 52 -80 59 -94 7 -14 55 -78 107 -142 51 -65 93 -122 93 -126
0 -5 35 -45 78 -89 42 -43 93 -97 113 -119 127 -137 383 -362 513 -449 55 -37
118 -82 141 -101 23 -18 57 -41 76 -49 19 -9 48 -24 64 -35 17 -11 62 -35 100
-55 39 -20 92 -50 119 -66 52 -32 167 -79 193 -79 8 0 26 -9 40 -20 14 -11 33
-20 43 -20 9 0 25 -9 35 -20 10 -11 30 -20 44 -20 15 0 43 -9 64 -20 20 -11
47 -20 59 -20 13 0 41 -9 63 -19 22 -10 59 -21 83 -25 24 -3 53 -13 65 -20 12
-8 47 -16 77 -20 30 -3 73 -13 95 -21 22 -8 58 -14 80 -15 22 0 58 -9 80 -20
27 -13 62 -19 110 -20 47 0 80 -6 100 -17 27 -16 70 -18 445 -18 368 0 421 2
469 17 30 10 75 18 100 18 24 0 72 8 105 19 55 17 149 38 276 61 25 5 59 15
75 24 17 9 39 16 50 16 11 0 38 9 60 20 22 11 59 19 82 20 24 0 57 9 75 20 18
11 47 20 63 20 18 0 38 8 48 20 9 11 23 20 31 20 7 0 24 8 37 19 13 10 38 22
56 25 17 4 34 14 37 22 3 8 14 14 25 14 18 0 82 27 121 51 8 5 24 13 35 18 73
32 60 25 233 129 39 23 75 42 80 42 5 0 16 7 23 17 12 14 83 64 138 98 33 20
86 60 96 71 6 7 48 42 95 79 132 105 396 368 477 475 23 30 56 69 73 87 17 17
45 51 61 75 98 143 144 208 170 243 16 22 39 58 50 80 11 22 33 67 50 100 16
33 34 67 39 75 6 8 18 32 27 53 9 20 20 37 25 37 4 0 8 6 8 12 0 7 11 35 24
63 56 120 66 143 66 160 0 18 24 75 61 147 10 20 19 47 19 60 0 13 9 37 20 53
13 20 20 47 20 81 0 32 5 56 14 63 8 6 17 37 21 69 4 31 13 72 21 92 7 19 18
64 23 98 6 35 15 70 22 78 6 8 15 72 20 144 5 72 14 141 21 153 10 17 14 184
18 732 4 515 8 716 17 730 6 11 16 54 22 94 5 41 15 77 21 81 6 4 14 27 17 51
3 24 14 55 24 68 11 13 19 32 19 42 0 10 5 21 11 25 6 3 19 25 30 48 10 22 24
50 31 61 7 11 28 44 47 74 40 63 243 271 265 271 8 0 19 6 23 13 11 17 79 67
92 67 5 0 16 6 23 13 25 24 107 67 128 67 11 0 38 9 60 20 22 11 48 20 59 20
10 0 43 9 73 20 118 43 543 43 613 0 19 -11 50 -20 73 -20 22 0 44 -4 47 -10
3 -5 25 -14 48 -20 54 -14 120 -45 177 -85 25 -17 65 -43 90 -57 25 -14 56
-36 69 -47 13 -12 28 -21 32 -21 12 0 190 -202 203 -230 6 -14 26 -45 44 -69
18 -24 39 -58 47 -75 8 -17 19 -38 24 -46 19 -29 49 -105 56 -145 4 -22 12
-43 18 -47 6 -4 12 -62 15 -145 4 -104 9 -144 21 -163 14 -22 16 -140 17
-1235 1 -1289 7 -1587 28 -1620 7 -11 15 -58 18 -105 3 -47 13 -112 22 -145
32 -112 68 -220 82 -247 8 -14 14 -35 14 -45 0 -11 9 -28 20 -38 11 -10 20
-28 20 -40 0 -12 9 -30 19 -39 11 -10 23 -31 26 -47 4 -16 11 -31 16 -35 5 -3
16 -20 25 -37 28 -60 47 -92 64 -112 10 -11 39 -51 65 -90 43 -63 107 -135
216 -244 19 -20 71 -65 114 -101 43 -36 83 -70 89 -75 11 -10 112 -77 196
-130 25 -15 49 -34 53 -42 4 -7 14 -13 22 -13 13 0 38 -10 151 -61 23 -11 48
-19 55 -19 8 0 24 -7 35 -14 12 -8 43 -20 70 -27 27 -6 54 -16 60 -20 6 -5 32
-12 58 -15 26 -4 55 -14 63 -23 10 -9 44 -18 88 -22 40 -4 86 -14 103 -23 47
-24 593 -24 637 0 17 9 62 20 100 24 39 4 115 24 170 44 55 20 108 36 118 36
10 0 35 9 55 20 50 26 128 60 141 60 6 0 28 9 48 20 21 11 43 20 49 20 6 0 19
9 29 20 10 11 23 20 30 20 7 0 24 11 39 25 15 14 32 25 37 25 11 0 56 32 192
140 95 75 311 290 348 347 14 21 43 65 64 98 21 33 45 71 55 85 9 14 20 32 24
40 4 8 18 33 31 55 26 42 36 63 66 135 65 157 92 230 99 270 5 25 13 58 19 74
6 15 16 60 21 98 6 38 17 80 26 93 14 22 16 104 16 754 0 755 2 790 40 815 21
13 63 0 90 -27 13 -13 41 -35 63 -50 22 -15 65 -49 94 -77 30 -27 58 -50 62
-50 6 0 89 -64 139 -108 8 -7 34 -28 57 -45 52 -40 145 -117 251 -210 311
-269 941 -918 1065 -1097 17 -25 36 -49 43 -55 6 -5 33 -41 60 -80 26 -38 57
-83 68 -100 12 -16 24 -32 28 -35 15 -12 58 -82 58 -95 0 -8 6 -18 13 -22 16
-10 58 -74 92 -138 14 -27 32 -56 40 -65 8 -9 15 -23 15 -32 0 -8 9 -27 20
-41 11 -14 20 -32 20 -40 0 -8 9 -26 20 -40 11 -14 20 -32 20 -40 0 -8 20 -54
45 -103 25 -48 45 -96 45 -106 0 -10 6 -29 14 -41 7 -12 16 -48 19 -80 3 -32
11 -65 17 -72 6 -8 15 -42 20 -76 5 -34 14 -65 20 -69 6 -4 15 -54 21 -111 9
-99 20 -155 40 -207 l9 -23 203 3 c137 2 208 7 222 15 11 7 87 16 176 22 151
9 184 16 222 49 16 14 17 29 11 156 -6 110 -11 147 -25 166 -9 14 -20 50 -23
81 -3 31 -12 71 -20 90 -7 19 -16 58 -20 88 -4 30 -13 66 -20 80 -7 14 -17 44
-20 65 -4 21 -13 48 -21 60 -7 12 -16 40 -20 63 -3 22 -13 49 -20 60 -8 10
-15 26 -15 36 0 10 -9 35 -20 55 -10 20 -51 102 -90 182 -39 80 -82 163 -95
185 -13 22 -30 51 -37 65 -7 14 -15 27 -18 30 -3 3 -25 39 -49 80 -24 41 -51
86 -60 99 -9 13 -24 36 -33 50 -10 14 -25 39 -33 54 -14 25 -104 153 -149 212
-64 84 -217 275 -232 291 -11 10 -32 37 -47 59 -50 74 -247 283 -542 575 -323
320 -378 371 -617 565 -64 52 -120 100 -123 106 -4 6 -39 35 -79 64 -39 30
-90 71 -113 92 -23 21 -67 56 -98 77 -48 34 -55 44 -55 73 0 23 7 37 24 48 40
27 165 92 294 152 31 15 82 44 112 64 30 20 71 45 90 55 19 11 49 29 67 42 17
12 34 22 38 22 6 0 79 45 145 90 14 9 32 19 40 23 8 4 33 21 55 38 22 16 74
52 115 79 41 27 94 64 117 82 23 18 58 44 78 58 97 66 257 193 387 305 39 33
82 68 96 77 15 10 66 54 114 98 48 45 113 101 145 124 32 24 69 56 83 71 14
15 47 46 75 67 45 36 103 89 294 263 92 84 240 233 279 279 19 24 30 46 27 56
-5 17 -127 137 -390 385 -76 72 -151 142 -167 158 -16 15 -37 27 -46 27 -10 0
-87 -68 -172 -151 -152 -148 -308 -293 -426 -395 -32 -29 -84 -74 -114 -101
-30 -26 -73 -62 -95 -78 -22 -16 -44 -36 -48 -42 -4 -7 -63 -57 -131 -111 -67
-54 -131 -106 -142 -116 -10 -9 -55 -44 -99 -77 -96 -72 -130 -99 -153 -120
-9 -8 -42 -32 -72 -52 -57 -39 -153 -107 -230 -164 -25 -18 -58 -40 -75 -48
-32 -16 -40 -22 -151 -96 -74 -49 -89 -58 -228 -132 -50 -26 -100 -57 -111
-67 -11 -10 -33 -22 -50 -26 -16 -4 -39 -13 -50 -20 -11 -8 -28 -14 -38 -14
-10 0 -30 -9 -44 -20 -14 -11 -33 -20 -41 -20 -9 0 -24 -7 -34 -17 -20 -18
-125 -63 -148 -63 -8 0 -28 -7 -44 -15 -15 -8 -36 -15 -46 -15 -24 0 -50 32
-61 77 -5 21 -9 339 -9 708 -1 670 -5 778 -36 845 -49 104 -64 127 -114 177
-80 80 -167 108 -301 99 -141 -9 -234 -67 -325 -201 -40 -60 -75 -167 -74
-233 0 -31 0 -977 1 -2102 0 -2042 0 -2045 -20 -2102 -12 -32 -21 -72 -21 -91
0 -18 -6 -41 -14 -52 -7 -11 -17 -36 -21 -55 -4 -19 -13 -46 -20 -60 -26 -49
-65 -139 -65 -150 0 -13 -25 -48 -116 -165 -70 -89 -172 -191 -223 -222 -14
-9 -44 -31 -66 -48 -49 -39 -134 -85 -156 -85 -9 0 -22 -7 -29 -15 -7 -8 -29
-15 -50 -15 -24 0 -43 -7 -55 -20 -10 -11 -26 -20 -36 -20 -10 0 -41 -9 -69
-20 -98 -38 -501 -42 -590 -5 -19 8 -53 17 -75 21 -22 4 -53 15 -70 26 -16 10
-37 18 -47 18 -56 0 -275 155 -406 288 -76 77 -189 233 -215 297 -5 11 -14 23
-22 27 -7 5 -16 27 -20 51 -4 23 -14 54 -21 69 -8 15 -14 42 -14 61 0 19 -9
54 -19 78 -27 61 -31 283 -31 1658 0 674 -3 1118 -9 1125 -5 6 -12 83 -16 171
-4 104 -13 187 -26 237 -10 43 -19 87 -19 98 0 11 -9 46 -20 77 -11 32 -20 69
-20 84 0 14 -8 37 -19 50 -10 13 -20 43 -24 66 -6 48 -35 113 -84 187 -18 28
-33 55 -33 60 0 32 -115 201 -263 386 -38 48 -160 171 -207 210 -30 25 -62 51
-70 58 -8 7 -41 32 -72 55 -32 23 -77 56 -101 74 -48 36 -234 133 -255 133 -8
0 -25 9 -39 20 -14 11 -32 20 -40 20 -8 0 -26 9 -40 20 -14 11 -34 20 -45 20
-10 0 -33 7 -49 16 -17 8 -62 18 -101 21 -38 3 -76 12 -83 19 -7 8 -39 17 -72
20 -32 4 -74 14 -93 22 -52 24 -562 30 -630 8 -25 -8 -80 -20 -121 -27 -41 -6
-79 -15 -84 -20 -6 -4 -42 -13 -80 -19 -38 -6 -75 -15 -81 -21 -7 -5 -35 -12
-63 -16 -36 -4 -55 -12 -62 -24 -7 -14 -21 -19 -49 -19 -21 0 -45 -6 -52 -13
-16 -16 -116 -67 -130 -67 -6 0 -35 -16 -63 -35 -29 -19 -64 -39 -76 -45 -13
-6 -51 -30 -84 -55 -33 -25 -72 -52 -87 -60 -32 -17 -98 -78 -243 -220 -105
-104 -236 -271 -278 -355 -7 -14 -25 -45 -41 -70 -16 -25 -44 -80 -62 -124
-18 -43 -37 -82 -43 -85 -5 -4 -14 -27 -20 -52 -6 -25 -17 -58 -26 -75 -8 -16
-15 -38 -15 -49 0 -11 -7 -31 -16 -43 -9 -13 -20 -55 -25 -94 -5 -39 -13 -76
-19 -83 -5 -7 -13 -61 -16 -121 -3 -65 -12 -125 -22 -149 -15 -35 -17 -120
-22 -730 -5 -636 -6 -692 -22 -715 -13 -18 -18 -44 -18 -97 0 -40 -6 -92 -14
-115 -8 -24 -17 -70 -21 -103 -4 -33 -13 -71 -20 -85 -7 -14 -16 -44 -20 -67
-3 -23 -13 -47 -20 -53 -8 -6 -17 -26 -20 -43 -10 -49 -54 -179 -65 -192 -20
-24 -60 -107 -60 -124 0 -10 -9 -26 -20 -36 -11 -10 -20 -24 -20 -31 0 -24
-86 -171 -145 -249 -8 -10 -15 -23 -15 -29 0 -5 -15 -27 -33 -50 -18 -23 -40
-52 -49 -66 -8 -14 -28 -38 -44 -55 -16 -16 -48 -56 -71 -87 -46 -62 -299
-318 -315 -318 -5 0 -19 -10 -31 -23 -71 -75 -311 -242 -461 -321 -38 -20 -74
-40 -80 -45 -6 -5 -23 -12 -38 -16 -15 -4 -32 -13 -39 -21 -6 -8 -18 -14 -27
-14 -8 0 -40 -12 -71 -26 -93 -42 -114 -51 -171 -72 -30 -11 -75 -23 -99 -26
-24 -4 -56 -13 -72 -21 -15 -8 -39 -15 -53 -15 -14 0 -52 -9 -83 -19 -32 -11
-79 -22 -106 -25 -26 -3 -57 -12 -70 -20 -64 -39 -876 -39 -936 1 -13 8 -54
18 -90 21 -36 3 -82 13 -101 23 -19 11 -51 19 -71 19 -20 0 -65 9 -99 20 -34
11 -75 20 -91 20 -25 0 -102 34 -133 59 -6 5 -22 12 -36 16 -24 6 -52 19 -160
69 -113 53 -299 164 -335 200 -9 9 -22 16 -28 16 -13 1 -70 42 -203 147 -131
102 -307 282 -426 433 -155 196 -177 227 -206 284 -13 28 -40 70 -58 93 -19
23 -34 44 -34 48 0 5 -75 166 -101 218 -20 38 -59 151 -59 169 0 11 -9 31 -20
45 -11 14 -20 36 -20 48 0 12 -8 32 -19 44 -11 13 -21 45 -25 83 -4 35 -13 66
-19 70 -6 4 -14 56 -18 125 -4 65 -12 132 -19 148 -8 18 -16 127 -21 280 -5
138 -15 273 -22 300 -9 39 -11 298 -9 1165 4 1299 6 1428 19 1441 7 7 6 20 -5
41 -13 26 -15 118 -16 662 0 347 3 646 8 664 4 19 14 32 23 32 13 0 13 3 3 16
-8 8 -14 41 -15 72 -1 31 -5 953 -9 2047 -4 1095 -8 2220 -10 2500 l-2 510
-26 47 c-36 66 -61 96 -121 146 -29 23 -63 52 -75 62 -21 18 -39 20 -185 20
-160 0 -163 -1 -203 -28z"/><path d="M13280 14214 c-41 -14 -93 -34 -116 -45 -22 -10 -43 -19 -47 -19 -25
0 -194 -138 -231 -189 -36 -49 -86 -143 -86 -161 0 -6 -10 -32 -21 -58 -20
-42 -22 -64 -22 -216 1 -178 3 -190 64 -308 10 -20 19 -46 19 -58 0 -45 179
-238 259 -280 124 -65 192 -80 360 -80 130 0 152 3 220 26 42 14 85 32 96 40
11 8 26 14 34 14 16 0 133 94 201 161 42 41 110 155 110 184 0 7 8 19 19 29
11 10 21 37 24 68 4 28 12 55 19 59 22 14 23 204 3 259 -10 25 -19 61 -22 80
-3 19 -13 46 -23 60 -10 14 -21 36 -25 49 -4 14 -24 48 -43 75 -20 28 -47 67
-60 86 -13 19 -31 39 -40 44 -9 5 -46 33 -82 61 -60 48 -148 96 -195 109 -11
2 -38 12 -60 20 -28 11 -76 15 -160 15 -101 0 -132 -4 -195 -25z"/><path d="M26385 13753 c-11 -3 -25 -9 -30 -14 -6 -4 -33 -13 -60 -19 -47 -10
-120 -39 -155 -61 -8 -5 -24 -13 -36 -18 -42 -19 -102 -65 -184 -144 -96 -91
-138 -146 -176 -227 -14 -30 -30 -64 -36 -74 -6 -11 -24 -58 -40 -105 -28 -82
-29 -91 -31 -285 -1 -172 1 -208 17 -246 10 -25 21 -61 26 -80 10 -44 52 -124
89 -170 15 -19 40 -58 55 -85 16 -28 43 -61 62 -75 18 -14 57 -47 86 -73 73
-68 121 -98 208 -131 41 -16 94 -38 117 -48 23 -10 48 -18 55 -18 7 -1 31 -8
53 -17 54 -21 319 -27 336 -7 6 7 32 16 57 19 26 4 59 15 74 26 15 10 35 19
45 19 10 0 27 6 38 14 11 8 39 19 63 26 23 8 47 19 53 27 6 7 16 13 23 13 6 0
31 20 56 44 25 24 77 74 117 111 39 37 77 81 84 98 7 18 27 50 45 72 40 51 69
110 78 159 4 21 14 49 22 61 21 32 44 230 34 285 -5 25 -9 80 -10 123 0 91
-11 123 -103 305 -55 109 -72 134 -149 210 -47 48 -101 97 -120 110 -132 92
-222 136 -293 145 -22 2 -53 12 -70 21 -25 13 -62 16 -205 15 -96 -1 -184 -4
-195 -6z m388 -93 c14 -11 40 -20 59 -20 18 0 46 -7 62 -15 15 -8 38 -15 51
-15 12 0 48 -19 79 -42 184 -138 207 -159 264 -244 88 -132 112 -176 112 -212
0 -18 9 -53 20 -77 11 -25 23 -66 26 -92 3 -27 13 -63 22 -81 15 -30 15 -36 0
-80 -9 -26 -19 -72 -23 -102 -3 -30 -15 -77 -25 -105 -10 -27 -26 -77 -36
-109 -10 -33 -31 -78 -47 -100 -15 -23 -44 -65 -63 -94 -61 -90 -244 -232
-298 -232 -13 0 -29 -7 -36 -15 -21 -25 -117 -65 -157 -65 -21 -1 -56 -9 -78
-20 -51 -25 -195 -28 -239 -5 -16 8 -47 18 -70 21 -135 19 -329 121 -436 229
-80 80 -140 166 -179 255 -57 132 -61 158 -62 373 0 228 0 228 99 435 31 64
146 196 208 237 33 23 80 57 105 77 24 20 58 40 74 44 17 4 39 13 50 20 11 8
36 14 57 14 21 0 55 9 75 20 33 18 57 20 199 20 146 0 164 -2 187 -20z"/><path d="M26330 13232 c-65 -13 -65 -14 -62 -487 2 -235 8 -428 13 -437 12
-22 28 -23 57 -2 21 15 22 20 22 203 0 159 2 191 16 202 11 9 51 13 133 12
105 0 123 -2 155 -22 20 -13 41 -33 48 -44 6 -12 19 -28 30 -35 10 -7 18 -17
18 -22 0 -5 15 -30 33 -55 17 -26 55 -88 84 -138 l51 -92 48 3 c62 3 74 15 46
45 -12 13 -22 28 -22 34 0 6 -27 46 -59 89 -56 74 -71 93 -129 162 -40 48 -42
51 -42 66 0 17 46 56 66 56 7 0 24 10 37 23 12 12 36 34 52 50 64 59 65 61 65
157 0 71 -3 90 -14 90 -8 0 -17 14 -21 30 -4 17 -11 30 -15 30 -5 0 -17 8 -27
19 -10 10 -36 22 -58 26 -21 3 -44 14 -51 23 -11 15 -39 17 -226 19 -117 0
-229 -2 -248 -5z m490 -107 c61 -42 71 -65 68 -157 -4 -94 -20 -115 -116 -147
-52 -18 -86 -21 -211 -21 -135 0 -151 2 -175 21 -26 20 -26 21 -26 164 0 189
-15 177 230 173 l185 -3 45 -30z"/></g></g></svg>